<svg xmlns="http://www.w3.org/2000/svg" viewBox="4 4 248 248" role="img" aria-label="Redline">
  <defs>
    <linearGradient id="flakeGrad" x1="40" y1="20" x2="216" y2="236" gradientUnits="userSpaceOnUse">
      <stop offset="0" stop-color="#B79CFF"/>
      <stop offset="0.55" stop-color="#A78BFA"/>
      <stop offset="1" stop-color="#7C5CFC"/>
    </linearGradient>
  </defs>
  <g fill="url(#flakeGrad)">
    <path d="M 143.31,91.04 L 164.96,112.69 L 164.96,143.31 L 143.31,164.96 L 112.69,164.96 L 91.04,143.31 L 91.04,112.69 L 112.69,91.04 Z M 117.28,102.13 L 102.13,117.28 L 102.13,138.72 L 117.28,153.87 L 138.72,153.87 L 153.87,138.72 L 153.87,117.28 L 138.72,102.13 Z" fill-rule="evenodd"/>
    <g transform="rotate(22.5 128.0 128.0)"><path d="M 128.00,38.00 L 139.07,71.07 L 128.00,88.00 L 116.93,71.07 Z"/></g>
    <g transform="rotate(67.5 128.0 128.0)"><path d="M 128.00,38.00 L 139.07,71.07 L 128.00,88.00 L 116.93,71.07 Z"/></g>
    <g transform="rotate(112.5 128.0 128.0)"><path d="M 128.00,38.00 L 139.07,71.07 L 128.00,88.00 L 116.93,71.07 Z"/></g>
    <g transform="rotate(157.5 128.0 128.0)"><path d="M 128.00,38.00 L 139.07,71.07 L 128.00,88.00 L 116.93,71.07 Z"/></g>
    <g transform="rotate(202.5 128.0 128.0)"><path d="M 128.00,38.00 L 139.07,71.07 L 128.00,88.00 L 116.93,71.07 Z"/></g>
    <g transform="rotate(247.5 128.0 128.0)"><path d="M 128.00,38.00 L 139.07,71.07 L 128.00,88.00 L 116.93,71.07 Z"/></g>
    <g transform="rotate(292.5 128.0 128.0)"><path d="M 128.00,38.00 L 139.07,71.07 L 128.00,88.00 L 116.93,71.07 Z"/></g>
    <g transform="rotate(337.5 128.0 128.0)"><path d="M 128.00,38.00 L 139.07,71.07 L 128.00,88.00 L 116.93,71.07 Z"/></g>
    <g transform="rotate(0 128.0 128.0)"><path d="M 128.00,4.00 L 134.78,56.32 L 128.00,84.00 L 121.22,56.32 Z"/><path d="M 128.00,34.00 L 138.03,48.63 L 128.00,62.00 L 117.97,48.63 Z"/></g>
    <g transform="rotate(45 128.0 128.0)"><path d="M 128.00,4.00 L 134.78,56.32 L 128.00,84.00 L 121.22,56.32 Z"/><path d="M 128.00,34.00 L 138.03,48.63 L 128.00,62.00 L 117.97,48.63 Z"/></g>
    <g transform="rotate(90 128.0 128.0)"><path d="M 128.00,4.00 L 134.78,56.32 L 128.00,84.00 L 121.22,56.32 Z"/><path d="M 128.00,34.00 L 138.03,48.63 L 128.00,62.00 L 117.97,48.63 Z"/></g>
    <g transform="rotate(135 128.0 128.0)"><path d="M 128.00,4.00 L 134.78,56.32 L 128.00,84.00 L 121.22,56.32 Z"/><path d="M 128.00,34.00 L 138.03,48.63 L 128.00,62.00 L 117.97,48.63 Z"/></g>
    <g transform="rotate(180 128.0 128.0)"><path d="M 128.00,4.00 L 134.78,56.32 L 128.00,84.00 L 121.22,56.32 Z"/><path d="M 128.00,34.00 L 138.03,48.63 L 128.00,62.00 L 117.97,48.63 Z"/></g>
    <g transform="rotate(225 128.0 128.0)"><path d="M 128.00,4.00 L 134.78,56.32 L 128.00,84.00 L 121.22,56.32 Z"/><path d="M 128.00,34.00 L 138.03,48.63 L 128.00,62.00 L 117.97,48.63 Z"/></g>
    <g transform="rotate(270 128.0 128.0)"><path d="M 128.00,4.00 L 134.78,56.32 L 128.00,84.00 L 121.22,56.32 Z"/><path d="M 128.00,34.00 L 138.03,48.63 L 128.00,62.00 L 117.97,48.63 Z"/></g>
    <g transform="rotate(315 128.0 128.0)"><path d="M 128.00,4.00 L 134.78,56.32 L 128.00,84.00 L 121.22,56.32 Z"/><path d="M 128.00,34.00 L 138.03,48.63 L 128.00,62.00 L 117.97,48.63 Z"/></g>
  </g>
</svg>
